<svg width="50" height="40" viewBox="0 0 50 40" fill="none" xmlns="http://www.w3.org/2000/svg">
<path d="M47.3611 16.6667H2.63889C1.18147 16.6667 0 18.0845 0 19.8334V20.1667C0 21.9156 1.18147 23.3334 2.63889 23.3334H47.3611C48.8185 23.3334 50 21.9156 50 20.1667V19.8334C50 18.0845 48.8185 16.6667 47.3611 16.6667Z" fill="white"/>
<path d="M47.3611 33.3333H2.63889C1.18147 33.3333 0 34.7511 0 36.5V36.8333C0 38.5822 1.18147 40 2.63889 40H47.3611C48.8185 40 50 38.5822 50 36.8333V36.5C50 34.7511 48.8185 33.3333 47.3611 33.3333Z" fill="white"/>
<path d="M47.3611 0H2.63889C1.18147 0 0 1.41776 0 3.16667V3.5C0 5.2489 1.18147 6.66667 2.63889 6.66667H47.3611C48.8185 6.66667 50 5.2489 50 3.5V3.16667C50 1.41776 48.8185 0 47.3611 0Z" fill="white"/>
</svg>
